inDegrees=yes
name=ik_Shooting_orientation_zug
DataType=double
version=3
OpenSimVersion=4.3-2021-08-27-4bc7ad9
endheader
time	pelvis_tilt	pelvis_list	pelvis_rotation	pelvis_tx	pelvis_ty	pelvis_tz	hip_flexion_r	hip_adduction_r	hip_rotation_r	knee_angle_r	knee_angle_r_beta	ankle_angle_r	subtalar_angle_r	mtp_angle_r	hip_flexion_l	hip_adduction_l	hip_rotation_l	knee_angle_l	knee_angle_l_beta	ankle_angle_l	subtalar_angle_l	mtp_angle_l	lumbar_extension	lumbar_bending	lumbar_rotation	arm_flex_r	arm_add_r	arm_rot_r	elbow_flex_r	pro_sup_r	wrist_flex_r	wrist_dev_r	arm_flex_l	arm_add_l	arm_rot_l	elbow_flex_l	pro_sup_l	wrist_flex_l	wrist_dev_l
11.87	-3.364170479832282	-0.1290810903162556	146.4477606424188	0	0.9399999999999999	0	44.99979196195532	-9.99999998857319	0	59.99929246739227	1.047185202423028	-4.999999851047216	0	0	44.99979196195532	-9.99999998857319	0	59.99929246739227	1.047185202423028	-4.999999851047216	0	0	45.14701162135744	-83.64880672686634	56.95341634074116	-89.9531035614248	-119.9902261831294	89.9973382808228	149.9989187271512	45.00000025531384	0	0	0	-14.9764083885502	0	75.00003670749719	45.00000025531384	0	0
11.88	-3.443293457847741	-0.237371002413557	146.267704197495	0	0.9399999999999999	0	44.99979460912508	-9.99999998857319	0	59.99930090866542	1.047185349751037	-4.999999851047216	0	0	44.99979460912508	-9.99999998857319	0	59.99930090866542	1.047185349751037	-4.999999851047216	0	0	50.18886370232065	-83.58610154508611	62.34826673582195	-89.9565243651392	-119.9905636274271	89.99735266888025	149.9989201674501	45.00000025531471	0	0	0	-14.97656195033363	0	75.00003847694065	45.00000025531471	0	0
11.89	-3.379463814879454	-0.1587489430980228	146.3316882023105	0	0.9399999999999999	0	44.99979473316881	-9.99999998857319	0	59.99930130891946	1.047185356736788	-4.999999851047216	0	0	44.99979473316881	-9.99999998857319	0	59.99930130891946	1.047185356736788	-4.999999851047216	0	0	50.08297355797527	-83.44103961017947	62.44934519335859	-89.95633974156847	-119.9908037841529	89.99735474725486	149.9989196098006	45.00000025531475	0	0	0	-14.97656922733717	0	75.000038559855	45.00000025531475	0	0
11.9	-3.395338285598647	-0.1902083200483209	146.2667139078682	0	0.9399999999999999	0	44.99979908639919	-9.999999988573196	0	59.99931524288095	1.047185599930294	-4.999999851047216	0	0	44.99979908639919	-9.999999988573196	0	59.99931524288095	1.047185599930294	-4.999999851047216	0	0	60.6786776819258	-84.31370428825984	73.1059457800468	-89.96118843981598	-119.9906914344335	89.99740996460744	149.9989193774775	45.00000025531605	0	0	0	-14.97682406384015	0	75.0000414696778	45.00000025531605	0	0
11.91	-3.377861220408486	-0.1076714714652037	146.3059067374594	0	0.9399999999999999	0	44.9997991445706	-9.999999988573196	0	59.99931543053792	1.047185603205526	-4.999999851047216	0	0	44.9997991445706	-9.999999988573196	0	59.99931543053792	1.047185603205526	-4.999999851047216	0	0	60.39323798899699	-84.35031032133715	73.40936366089825	-89.96563689704931	-119.991009731529	89.99743348188592	149.9989257961265	45.00000025531605	0	0	0	-14.97682749968646	0	75.00004150856128	45.00000025531605	0	0
11.92	-3.439438739069493	-0.2019606149223044	146.2842713074605	0	0.9399999999999999	0	44.99980285467472	-9.999999988573199	0	59.99932735792995	1.047185811377788	-4.999999851047216	0	0	44.99980285467472	-9.999999988573199	0	59.99932735792995	1.047185811377788	-4.999999851047216	0	0	50.09216985293254	-83.89497156509719	63.39161559208483	-89.96837855303345	-119.9910942592237	89.99740961052181	149.9989304626525	45.00000025531721	0	0	0	-14.97704680333629	0	75.00004398850079	45.00000025531721	0	0
11.93	-3.346596558147581	-0.04405237682003578	146.3826398056331	0	0.9399999999999999	0	44.99980289594008	-9.999999988573199	0	59.99932749172025	1.047185813712869	-4.999999851047216	0	0	44.99980289594008	-9.999999988573199	0	59.99932749172025	1.047185813712869	-4.999999851047216	0	0	50.06770081514016	-84.22989482197472	63.50970172307836	-89.96959359929539	-119.9910730779687	89.99743312935063	149.9989344278215	45.00000025531721	0	0	0	-14.97704926486122	0	75.00004401608373	45.00000025531721	0	0
11.94	-3.294928345513926	0.06292675515680073	146.4548900809417	0	0.9399999999999999	0	44.99980302437249	-9.999999988573199	0	59.99932790908062	1.047185820997182	-4.999999851047216	0	0	44.99980302437249	-9.999999988573199	0	59.99932790908062	1.047185820997182	-4.999999851047216	0	0	50.05478516803496	-84.18756919790233	63.73611661142342	-89.96984913234954	-119.9912582891235	89.99744104707887	149.9989378778742	45.00000025531726	0	0	0	-14.97705694170062	0	75.00004410193164	45.00000025531726	0	0
11.95	-3.494358236576692	-0.2703651769821793	146.1385524939194	0	0.9399999999999999	0	44.99980307854257	-9.999999988573199	0	59.99932808523982	1.04718582407174	-4.999999851047216	0	0	44.99980307854257	-9.999999988573199	0	59.99932808523982	1.04718582407174	-4.999999851047216	0	0	49.68087692450547	-83.1279879462049	63.9511479280247	-89.97097475009701	-119.9917966682724	89.9974071299974	149.9989397378285	45.00000025531727	0	0	0	-14.9770601810126	0	75.00004413814048	45.00000025531727	0	0
11.96	-3.413358455149481	-0.0985958711802489	146.2329801222131	0	0.9399999999999999	0	44.99980603832222	-9.999999988573204	0	59.99933617509165	1.04718596526629	-4.999999851047216	0	0	44.99980603832222	-9.999999988573204	0	59.99933617509165	1.04718596526629	-4.999999851047216	0	0	62.70139482945938	-84.09637544587919	76.44001168474503	-89.96841479180155	-119.9915040608948	89.99744978699299	149.9989347586383	45.00000025531831	0	-1.616420763446103e-35	0	-14.97721538651883	0	75.00004611654015	45.00000025531831	0	-1.616420763446103e-35
11.97	-3.259463930510614	0.1917947765778024	146.3097864793131	0	0.9399999999999999	0	44.99980884138235	-9.999999988573204	0	59.99934526593029	1.047186123931356	-4.999999851047216	0	0	44.99980884138235	-9.999999988573204	0	59.99934526593029	1.047186123931356	-4.999999851047216	0	0	72.78583218554998	-85.05089741430011	86.45412795695295	-89.97176821740207	-119.9911771462702	89.99751952786325	149.9989418071048	45.00000025531921	0	0	0	-14.97738384689554	0	75.00004799018591	45.00000025531921	0	0
11.98	-3.17986181748143	0.3631178785842792	146.3462082376585	0	0.9399999999999999	0	44.9998089394471	-9.999999988573204	0	59.99934558710789	1.047186129536963	-4.999999851047216	0	0	44.9998089394471	-9.999999988573204	0	59.99934558710789	1.047186129536963	-4.999999851047216	0	0	72.64181186895813	-85.23727786251081	86.4615588036397	-89.97307704773496	-119.9911683366614	89.9975390882159	149.9989470850736	45.00000025531923	0	0	0	-14.97738979949145	0	75.00004805573522	45.00000025531923	0	0
